<svg xmlns="http://www.w3.org/2000/svg" xmlns:xlink="http://www.w3.org/1999/xlink" width="6912" zoomAndPan="magnify" viewBox="0 0 5184 2592.000001" height="3456" preserveAspectRatio="xMidYMid meet" version="1.0"><defs><g/></defs><g fill="#e4e2dd" fill-opacity="1"><g transform="translate(532.450202, 1576.445749)"><g><path d="M 849.53125 -446.03125 L 499.96875 -780.03125 L 496.859375 -780.03125 L 496.859375 -16.59375 L 499.96875 -16.59375 L 849.53125 -350.59375 L 849.53125 0 L 438.765625 0 C 370.992188 0 306.507812 -17.804688 245.3125 -53.421875 C 184.113281 -89.035156 134.671875 -137.441406 96.984375 -198.640625 C 59.296875 -259.835938 40.453125 -327.085938 40.453125 -400.390625 C 40.453125 -456.398438 52.035156 -509.125 75.203125 -558.5625 C 98.367188 -608.007812 131.390625 -652.441406 174.265625 -691.859375 C 206.765625 -721.597656 248.945312 -745.972656 300.8125 -764.984375 C 352.675781 -784.003906 405.578125 -793.515625 459.515625 -793.515625 L 849.53125 -793.515625 Z M 849.53125 -446.03125 "/></g></g></g><g fill="#e4e2dd" fill-opacity="1"><g transform="translate(1367.464433, 1576.445749)"><g><path d="M 823.59375 -793.515625 L 823.59375 -471.96875 L 431.515625 -793.515625 Z M 322.59375 -789.375 L 329.859375 -789.375 L 757.21875 -439.8125 C 770.351562 -428.050781 782.453125 -416.460938 793.515625 -405.046875 C 804.578125 -393.640625 818.0625 -377.21875 833.96875 -355.78125 C 857.476562 -323.28125 869.234375 -284.554688 869.234375 -239.609375 C 869.234375 -200.191406 859.550781 -162.15625 840.1875 -125.5 C 820.832031 -88.851562 790.582031 -58.773438 749.4375 -35.265625 C 708.289062 -11.753906 657.289062 0 596.4375 0 L 212.640625 -290.4375 C 158.703125 -331.238281 119.113281 -372.898438 93.875 -415.421875 C 68.632812 -457.953125 56.015625 -503.421875 56.015625 -551.828125 C 56.015625 -599.546875 67.769531 -641.382812 91.28125 -677.34375 C 114.789062 -713.300781 146.769531 -740.960938 187.21875 -760.328125 C 227.675781 -779.691406 272.800781 -789.375 322.59375 -789.375 Z M 60.15625 -331.9375 L 483.375 0 L 60.15625 0 Z M 60.15625 -331.9375 "/></g></g></g><g fill="#e4e2dd" fill-opacity="1"><g transform="translate(2192.105741, 1576.445749)"><g><path d="M 995.796875 -582.953125 C 995.796875 -509.648438 960.179688 -449.140625 888.953125 -401.421875 C 922.835938 -379.296875 949.804688 -354.226562 969.859375 -326.21875 C 989.910156 -298.21875 999.9375 -261.742188 999.9375 -216.796875 C 999.9375 -173.921875 990.425781 -136.054688 971.40625 -103.203125 C 952.394531 -70.359375 925.253906 -44.945312 889.984375 -26.96875 C 854.722656 -8.988281 813.925781 0 767.59375 0 L 383.796875 0 L 383.796875 -12.453125 C 454.328125 -25.585938 503.078125 -50.828125 530.046875 -88.171875 C 557.015625 -125.515625 570.5 -164.238281 570.5 -204.34375 C 570.5 -229.238281 564.796875 -255.515625 553.390625 -283.171875 C 541.984375 -310.835938 521.582031 -335.734375 492.1875 -357.859375 C 462.800781 -379.992188 423.90625 -393.132812 375.5 -397.28125 L 375.5 -409.71875 C 437.039062 -420.09375 483.367188 -442.738281 514.484375 -477.65625 C 545.609375 -512.582031 561.171875 -554.25 561.171875 -602.65625 C 561.171875 -651.0625 545.78125 -693.070312 515 -728.6875 C 484.226562 -764.300781 440.492188 -784.875 383.796875 -790.40625 L 383.796875 -798.703125 L 752.03125 -798.703125 C 807.351562 -798.703125 853.335938 -788.15625 889.984375 -767.0625 C 926.640625 -745.976562 953.4375 -719.007812 970.375 -686.15625 C 987.320312 -653.3125 995.796875 -618.910156 995.796875 -582.953125 Z M 212.640625 -793.515625 C 243.765625 -793.515625 272.460938 -785.734375 298.734375 -770.171875 C 325.015625 -754.617188 345.929688 -733.703125 361.484375 -707.421875 C 377.046875 -681.148438 384.828125 -652.453125 384.828125 -621.328125 C 384.828125 -590.210938 377.046875 -561.515625 361.484375 -535.234375 C 345.929688 -508.960938 325.015625 -488.046875 298.734375 -472.484375 C 272.460938 -456.921875 243.765625 -449.140625 212.640625 -449.140625 C 181.523438 -449.140625 152.65625 -456.742188 126.03125 -471.953125 C 99.40625 -487.171875 78.3125 -507.914062 62.75 -534.1875 C 47.195312 -560.46875 39.421875 -589.515625 39.421875 -621.328125 C 39.421875 -653.140625 47.195312 -682.179688 62.75 -708.453125 C 78.3125 -734.734375 99.40625 -755.476562 126.03125 -770.6875 C 152.65625 -785.90625 181.523438 -793.515625 212.640625 -793.515625 Z M 208.5 -356.828125 C 240.300781 -356.828125 269.34375 -349.046875 295.625 -333.484375 C 321.90625 -317.921875 342.648438 -296.828125 357.859375 -270.203125 C 373.078125 -243.585938 380.6875 -214.71875 380.6875 -183.59375 C 380.6875 -152.476562 372.90625 -123.78125 357.34375 -97.5 C 341.78125 -71.226562 320.859375 -50.3125 294.578125 -34.75 C 268.304688 -19.1875 239.613281 -11.40625 208.5 -11.40625 C 177.375 -11.40625 148.5 -19.1875 121.875 -34.75 C 95.25 -50.3125 74.15625 -71.226562 58.59375 -97.5 C 43.039062 -123.78125 35.265625 -152.476562 35.265625 -183.59375 C 35.265625 -215.40625 43.039062 -244.445312 58.59375 -270.71875 C 74.15625 -297 95.25 -317.921875 121.875 -333.484375 C 148.5 -349.046875 177.375 -356.828125 208.5 -356.828125 Z M 208.5 -356.828125 "/></g></g></g><g fill="#e4e2dd" fill-opacity="1"><g transform="translate(3178.563619, 1576.445749)"><g><path d="M 520.71875 -793.515625 L 520.71875 0 L 64.3125 0 L 64.3125 -793.515625 Z M 520.71875 -793.515625 "/></g></g></g><g fill="#e4e2dd" fill-opacity="1"><g transform="translate(3711.727864, 1576.445749)"><g><path d="M 594.359375 -798.703125 L 939.78125 0 L 426.328125 0 L 282.140625 -344.375 L 209.53125 -344.375 L 350.59375 0 L 16.59375 0 L 186.703125 -402.46875 L 257.25 -402.46875 L 223.015625 -486.484375 L 355.78125 -798.703125 Z M 594.359375 -798.703125 "/></g></g></g><g fill="#e4e2dd" fill-opacity="1"><g transform="translate(2442.043918, 1887.958915)"><g><path d="M 32.390625 -13.078125 L 67.40625 -13.078125 L 67.40625 0 L 7.078125 0 L 7.078125 -7.796875 L 34.90625 -35.03125 C 40.738281 -40.78125 44.796875 -45.375 47.078125 -48.8125 C 49.359375 -52.257812 50.5 -55.898438 50.5 -59.734375 C 50.5 -63.492188 49.457031 -66.515625 47.375 -68.796875 C 45.300781 -71.078125 42.382812 -72.21875 38.625 -72.21875 C 34.539062 -72.21875 31.441406 -70.957031 29.328125 -68.4375 C 27.210938 -65.914062 25.875 -62.132812 25.3125 -57.09375 L 25.1875 -55.890625 L 8.75 -55.890625 L 8.875 -57.09375 C 9.757812 -65.96875 12.878906 -72.765625 18.234375 -77.484375 C 23.585938 -82.203125 30.90625 -84.5625 40.1875 -84.5625 C 49.0625 -84.5625 55.914062 -82.398438 60.75 -78.078125 C 65.59375 -73.765625 68.015625 -67.972656 68.015625 -60.703125 C 68.015625 -55.578125 66.570312 -50.753906 63.6875 -46.234375 C 60.8125 -41.722656 55.492188 -35.664062 47.734375 -28.0625 Z M 32.390625 -13.078125 "/></g></g></g><g fill="#e4e2dd" fill-opacity="1"><g transform="translate(2517.015036, 1887.958915)"><g><path d="M 37.546875 -84.453125 C 58.972656 -84.453125 69.6875 -70.097656 69.6875 -41.390625 C 69.6875 -12.679688 58.972656 1.671875 37.546875 1.671875 C 16.035156 1.671875 5.28125 -12.679688 5.28125 -41.390625 C 5.28125 -70.097656 16.035156 -84.453125 37.546875 -84.453125 Z M 26.390625 -18.171875 C 28.785156 -13.171875 32.503906 -10.671875 37.546875 -10.671875 C 42.585938 -10.671875 46.285156 -13.171875 48.640625 -18.171875 C 50.992188 -23.171875 52.171875 -30.910156 52.171875 -41.390625 C 52.171875 -51.941406 50.992188 -59.695312 48.640625 -64.65625 C 46.285156 -69.613281 42.585938 -72.09375 37.546875 -72.09375 C 32.429688 -72.09375 28.691406 -69.613281 26.328125 -64.65625 C 23.972656 -59.695312 22.796875 -51.941406 22.796875 -41.390625 C 22.796875 -30.910156 23.992188 -23.171875 26.390625 -18.171875 Z M 26.390625 -18.171875 "/></g></g></g><g fill="#e4e2dd" fill-opacity="1"><g transform="translate(2591.986155, 1887.958915)"><g><path d="M 32.390625 -13.078125 L 67.40625 -13.078125 L 67.40625 0 L 7.078125 0 L 7.078125 -7.796875 L 34.90625 -35.03125 C 40.738281 -40.78125 44.796875 -45.375 47.078125 -48.8125 C 49.359375 -52.257812 50.5 -55.898438 50.5 -59.734375 C 50.5 -63.492188 49.457031 -66.515625 47.375 -68.796875 C 45.300781 -71.078125 42.382812 -72.21875 38.625 -72.21875 C 34.539062 -72.21875 31.441406 -70.957031 29.328125 -68.4375 C 27.210938 -65.914062 25.875 -62.132812 25.3125 -57.09375 L 25.1875 -55.890625 L 8.75 -55.890625 L 8.875 -57.09375 C 9.757812 -65.96875 12.878906 -72.765625 18.234375 -77.484375 C 23.585938 -82.203125 30.90625 -84.5625 40.1875 -84.5625 C 49.0625 -84.5625 55.914062 -82.398438 60.75 -78.078125 C 65.59375 -73.765625 68.015625 -67.972656 68.015625 -60.703125 C 68.015625 -55.578125 66.570312 -50.753906 63.6875 -46.234375 C 60.8125 -41.722656 55.492188 -35.664062 47.734375 -28.0625 Z M 32.390625 -13.078125 "/></g></g></g><g fill="#e4e2dd" fill-opacity="1"><g transform="translate(2666.957274, 1887.958915)"><g><path d="M 70.890625 -19.546875 L 60.703125 -19.546875 L 60.703125 0 L 44.140625 0 L 44.140625 -19.546875 L 4.3125 -19.546875 L 4.3125 -28.421875 L 43.0625 -82.765625 L 60.703125 -82.765625 L 60.703125 -32.625 L 70.890625 -32.625 Z M 44.140625 -32.625 L 44.140625 -64.0625 C 42.304688 -60.851562 40.46875 -57.929688 38.625 -55.296875 L 22.4375 -32.625 Z M 44.140625 -32.625 "/></g></g></g></svg>