<svg xmlns="http://www.w3.org/2000/svg" xmlns:xlink="http://www.w3.org/1999/xlink" width="500" zoomAndPan="magnify" viewBox="0 0 375 374.999991" height="500" preserveAspectRatio="xMidYMid meet" version="1.0"><defs><g/></defs><g fill="#e4e2dd" fill-opacity="1"><g transform="translate(6.81744, 211.875968)"><g><path d="M 74.53125 -39.125 L 43.859375 -68.4375 L 43.59375 -68.4375 L 43.59375 -1.453125 L 43.859375 -1.453125 L 74.53125 -30.765625 L 74.53125 0 L 38.5 0 C 32.550781 0 26.890625 -1.5625 21.515625 -4.6875 C 16.148438 -7.8125 11.8125 -12.054688 8.5 -17.421875 C 5.195312 -22.796875 3.546875 -28.695312 3.546875 -35.125 C 3.546875 -40.039062 4.5625 -44.664062 6.59375 -49 C 8.625 -53.34375 11.519531 -57.242188 15.28125 -60.703125 C 18.132812 -63.304688 21.835938 -65.441406 26.390625 -67.109375 C 30.941406 -68.773438 35.582031 -69.609375 40.3125 -69.609375 L 74.53125 -69.609375 Z M 74.53125 -39.125 "/></g></g></g><g fill="#e4e2dd" fill-opacity="1"><g transform="translate(80.069219, 211.875968)"><g><path d="M 72.25 -69.609375 L 72.25 -41.40625 L 37.859375 -69.609375 Z M 28.296875 -69.25 L 28.9375 -69.25 L 66.4375 -38.578125 C 67.582031 -37.546875 68.640625 -36.53125 69.609375 -35.53125 C 70.585938 -34.53125 71.773438 -33.09375 73.171875 -31.21875 C 75.234375 -28.363281 76.265625 -24.960938 76.265625 -21.015625 C 76.265625 -17.554688 75.410156 -14.21875 73.703125 -11 C 72.003906 -7.789062 69.347656 -5.15625 65.734375 -3.09375 C 62.128906 -1.03125 57.660156 0 52.328125 0 L 18.65625 -25.484375 C 13.925781 -29.054688 10.453125 -32.707031 8.234375 -36.4375 C 6.015625 -40.175781 4.90625 -44.164062 4.90625 -48.40625 C 4.90625 -52.59375 5.9375 -56.265625 8 -59.421875 C 10.070312 -62.578125 12.878906 -65.003906 16.421875 -66.703125 C 19.972656 -68.398438 23.929688 -69.25 28.296875 -69.25 Z M 5.28125 -29.125 L 42.40625 0 L 5.28125 0 Z M 5.28125 -29.125 "/></g></g></g><g fill="#e4e2dd" fill-opacity="1"><g transform="translate(152.411032, 211.875968)"><g><path d="M 87.359375 -51.140625 C 87.359375 -44.710938 84.234375 -39.40625 77.984375 -35.21875 C 80.960938 -33.28125 83.328125 -31.082031 85.078125 -28.625 C 86.835938 -26.164062 87.71875 -22.960938 87.71875 -19.015625 C 87.71875 -15.253906 86.882812 -11.929688 85.21875 -9.046875 C 83.550781 -6.171875 81.171875 -3.941406 78.078125 -2.359375 C 74.984375 -0.785156 71.40625 0 67.34375 0 L 33.671875 0 L 33.671875 -1.09375 C 39.859375 -2.25 44.132812 -4.460938 46.5 -7.734375 C 48.863281 -11.015625 50.046875 -14.410156 50.046875 -17.921875 C 50.046875 -20.109375 49.546875 -22.414062 48.546875 -24.84375 C 47.546875 -27.269531 45.753906 -29.453125 43.171875 -31.390625 C 40.597656 -33.335938 37.1875 -34.492188 32.9375 -34.859375 L 32.9375 -35.9375 C 38.34375 -36.851562 42.410156 -38.84375 45.140625 -41.90625 C 47.867188 -44.96875 49.234375 -48.625 49.234375 -52.875 C 49.234375 -57.113281 47.878906 -60.796875 45.171875 -63.921875 C 42.472656 -67.046875 38.640625 -68.851562 33.671875 -69.34375 L 33.671875 -70.0625 L 65.96875 -70.0625 C 70.820312 -70.0625 74.859375 -69.132812 78.078125 -67.28125 C 81.296875 -65.4375 83.644531 -63.070312 85.125 -60.1875 C 86.613281 -57.3125 87.359375 -54.296875 87.359375 -51.140625 Z M 18.65625 -69.609375 C 21.382812 -69.609375 23.898438 -68.925781 26.203125 -67.5625 C 28.515625 -66.195312 30.351562 -64.363281 31.71875 -62.0625 C 33.082031 -59.757812 33.765625 -57.242188 33.765625 -54.515625 C 33.765625 -51.773438 33.082031 -49.253906 31.71875 -46.953125 C 30.351562 -44.648438 28.515625 -42.816406 26.203125 -41.453125 C 23.898438 -40.085938 21.382812 -39.40625 18.65625 -39.40625 C 15.925781 -39.40625 13.390625 -40.070312 11.046875 -41.40625 C 8.710938 -42.738281 6.863281 -44.554688 5.5 -46.859375 C 4.132812 -49.171875 3.453125 -51.722656 3.453125 -54.515625 C 3.453125 -57.296875 4.132812 -59.835938 5.5 -62.140625 C 6.863281 -64.453125 8.710938 -66.273438 11.046875 -67.609375 C 13.390625 -68.941406 15.925781 -69.609375 18.65625 -69.609375 Z M 18.296875 -31.296875 C 21.085938 -31.296875 23.632812 -30.613281 25.9375 -29.25 C 28.238281 -27.882812 30.054688 -26.035156 31.390625 -23.703125 C 32.722656 -21.367188 33.390625 -18.835938 33.390625 -16.109375 C 33.390625 -13.378906 32.707031 -10.859375 31.34375 -8.546875 C 29.976562 -6.242188 28.144531 -4.410156 25.84375 -3.046875 C 23.539062 -1.679688 21.023438 -1 18.296875 -1 C 15.566406 -1 13.03125 -1.679688 10.6875 -3.046875 C 8.351562 -4.410156 6.503906 -6.242188 5.140625 -8.546875 C 3.773438 -10.859375 3.09375 -13.378906 3.09375 -16.109375 C 3.09375 -18.898438 3.773438 -21.445312 5.140625 -23.75 C 6.503906 -26.050781 8.351562 -27.882812 10.6875 -29.25 C 13.03125 -30.613281 15.566406 -31.296875 18.296875 -31.296875 Z M 18.296875 -31.296875 "/></g></g></g><g fill="#e4e2dd" fill-opacity="1"><g transform="translate(238.948238, 211.875968)"><g><path d="M 45.6875 -69.609375 L 45.6875 0 L 5.640625 0 L 5.640625 -69.609375 Z M 45.6875 -69.609375 "/></g></g></g><g fill="#e4e2dd" fill-opacity="1"><g transform="translate(285.720147, 211.875968)"><g><path d="M 52.140625 -70.0625 L 82.453125 0 L 37.40625 0 L 24.75 -30.21875 L 18.375 -30.21875 L 30.765625 0 L 1.453125 0 L 16.375 -35.3125 L 22.5625 -35.3125 L 19.5625 -42.671875 L 31.21875 -70.0625 Z M 52.140625 -70.0625 "/></g></g></g></svg>